<svg width="800" height="600" viewBox="0 0 800 600" xmlns="http://www.w3.org/2000/svg">
  <defs>
    <linearGradient id="softGradient" x1="0%" y1="0%" x2="100%" y2="100%">
      <stop offset="0%" style="stop-color:rgba(255,255,255,0.1);stop-opacity:1" />
      <stop offset="25%" style="stop-color:rgba(200,220,255,0.15);stop-opacity:1" />
      <stop offset="50%" style="stop-color:rgba(220,200,255,0.1);stop-opacity:1" />
      <stop offset="75%" style="stop-color:rgba(255,220,200,0.15);stop-opacity:1" />
      <stop offset="100%" style="stop-color:rgba(255,255,255,0.05);stop-opacity:1" />
    </linearGradient>
    <radialGradient id="centerGlow" cx="50%" cy="50%" r="50%">
      <stop offset="0%" style="stop-color:rgba(255,255,255,0.2);stop-opacity:1" />
      <stop offset="100%" style="stop-color:rgba(255,255,255,0);stop-opacity:0" />
    </radialGradient>
  </defs>
  
  <!-- Base gradient -->
  <rect width="800" height="600" fill="url(#softGradient)" />
  
  <!-- Center glow overlay -->
  <rect width="800" height="600" fill="url(#centerGlow)" />
  
  <!-- Subtle texture overlay -->
  <g opacity="0.03">
    <circle cx="100" cy="100" r="2" fill="white"/>
    <circle cx="200" cy="150" r="1" fill="white"/>
    <circle cx="300" cy="80" r="1.5" fill="white"/>
    <circle cx="400" cy="200" r="1" fill="white"/>
    <circle cx="500" cy="120" r="2" fill="white"/>
    <circle cx="600" cy="180" r="1" fill="white"/>
    <circle cx="700" cy="90" r="1.5" fill="white"/>
    <circle cx="150" cy="300" r="1" fill="white"/>
    <circle cx="250" cy="350" r="2" fill="white"/>
    <circle cx="350" cy="280" r="1" fill="white"/>
    <circle cx="450" cy="400" r="1.5" fill="white"/>
    <circle cx="550" cy="320" r="1" fill="white"/>
    <circle cx="650" cy="380" r="2" fill="white"/>
    <circle cx="750" cy="290" r="1" fill="white"/>
    <circle cx="50" cy="450" r="1.5" fill="white"/>
    <circle cx="150" cy="500" r="1" fill="white"/>
    <circle cx="250" cy="480" r="2" fill="white"/>
    <circle cx="350" cy="520" r="1" fill="white"/>
    <circle cx="450" cy="460" r="1.5" fill="white"/>
    <circle cx="550" cy="540" r="1" fill="white"/>
    <circle cx="650" cy="490" r="2" fill="white"/>
    <circle cx="750" cy="470" r="1" fill="white"/>
  </g>
</svg>